<?xml version="1.0" encoding="utf-8" standalone="no"?>
<!DOCTYPE svg PUBLIC "-//W3C//DTD SVG 1.1//EN"
  "http://www.w3.org/Graphics/SVG/1.1/DTD/svg11.dtd">
<svg xmlns:xlink="http://www.w3.org/1999/xlink" width="387.36pt" height="347.11pt" viewBox="0 0 387.36 347.11" xmlns="http://www.w3.org/2000/svg" version="1.1">
 <metadata>
  <rdf:RDF xmlns:dc="http://purl.org/dc/elements/1.1/" xmlns:cc="http://creativecommons.org/ns#" xmlns:rdf="http://www.w3.org/1999/02/22-rdf-syntax-ns#">
   <cc:Work>
    <dc:type rdf:resource="http://purl.org/dc/dcmitype/StillImage"/>
    <dc:date>2026-07-08T03:05:45.217203</dc:date>
    <dc:format>image/svg+xml</dc:format>
    <dc:creator>
     <cc:Agent>
      <dc:title>Matplotlib v3.10.9, https://matplotlib.org/</dc:title>
     </cc:Agent>
    </dc:creator>
   </cc:Work>
  </rdf:RDF>
 </metadata>
 <defs>
  <style type="text/css">*{stroke-linejoin: round; stroke-linecap: butt}</style>
 </defs>
 <g id="figure_1">
  <g id="patch_1">
   <path d="M 0 347.11 
L 387.36 347.11 
L 387.36 0 
L 0 0 
L 0 347.11 
z
" style="fill: none"/>
  </g>
  <g id="axes_1">
   <g id="patch_2">
    <path d="M 67.68 155.31 
C 70.544193 155.31 73.291463 154.172044 75.316753 152.146753 
C 77.342044 150.121463 78.48 147.374193 78.48 144.51 
C 78.48 141.645807 77.342044 138.898537 75.316753 136.873247 
C 73.291463 134.847956 70.544193 133.71 67.68 133.71 
C 64.815807 133.71 62.068537 134.847956 60.043247 136.873247 
C 58.017956 138.898537 56.88 141.645807 56.88 144.51 
C 56.88 147.374193 58.017956 150.121463 60.043247 152.146753 
C 62.068537 154.172044 64.815807 155.31 67.68 155.31 
L 67.68 155.31 
z
" clip-path="url(#p31920b1c12)" style="fill: none; stroke: #000000; stroke-width: 2; stroke-linejoin: miter"/>
   </g>
   <g id="patch_3">
    <path d="M 319.68 155.31 
C 322.544193 155.31 325.291463 154.172044 327.316753 152.146753 
C 329.342044 150.121463 330.48 147.374193 330.48 144.51 
C 330.48 141.645807 329.342044 138.898537 327.316753 136.873247 
C 325.291463 134.847956 322.544193 133.71 319.68 133.71 
C 316.815807 133.71 314.068537 134.847956 312.043247 136.873247 
C 310.017956 138.898537 308.88 141.645807 308.88 144.51 
C 308.88 147.374193 310.017956 150.121463 312.043247 152.146753 
C 314.068537 154.172044 316.815807 155.31 319.68 155.31 
L 319.68 155.31 
z
" clip-path="url(#p31920b1c12)" style="fill: none; stroke: #000000; stroke-width: 2; stroke-linejoin: miter"/>
   </g>
   <g id="line2d_1">
    <path d="M 121.68 144.51 
L 134.88 144.51 
" clip-path="url(#p31920b1c12)" style="fill: none; stroke: #000000; stroke-width: 2; stroke-linecap: round"/>
   </g>
   <g id="line2d_2">
    <path d="M 134.88 131.31 
L 134.88 157.71 
" clip-path="url(#p31920b1c12)" style="fill: none; stroke: #000000; stroke-width: 2; stroke-linecap: round"/>
   </g>
   <g id="line2d_3">
    <path d="M 134.88 137.91 
L 148.74 126.03 
L 148.74 119.43 
" clip-path="url(#p31920b1c12)" style="fill: none; stroke: #000000; stroke-width: 2; stroke-linecap: round"/>
   </g>
   <g id="line2d_4">
    <path d="M 134.88 151.11 
L 148.74 162.99 
L 148.74 169.59 
" clip-path="url(#p31920b1c12)" style="fill: none; stroke: #000000; stroke-width: 2; stroke-linecap: round"/>
   </g>
   <g id="line2d_5">
    <path d="M 134.88 151.11 
L 141.906691 157.132878 
" clip-path="url(#p31920b1c12)" style="fill: none; stroke: #000000; stroke-width: 2; stroke-linecap: round"/>
   </g>
   <g id="patch_4">
    <path d="M 144.24954 154.399554 
L 148.74 162.99 
L 139.563842 159.866201 
z
" clip-path="url(#p31920b1c12)"/>
   </g>
   <g id="line2d_6">
    <path d="M 265.68 144.51 
L 278.88 144.51 
" clip-path="url(#p31920b1c12)" style="fill: none; stroke: #000000; stroke-width: 2; stroke-linecap: round"/>
   </g>
   <g id="line2d_7">
    <path d="M 278.88 157.71 
L 278.88 131.31 
" clip-path="url(#p31920b1c12)" style="fill: none; stroke: #000000; stroke-width: 2; stroke-linecap: round"/>
   </g>
   <g id="line2d_8">
    <path d="M 278.88 151.11 
L 292.74 162.99 
L 292.74 169.59 
" clip-path="url(#p31920b1c12)" style="fill: none; stroke: #000000; stroke-width: 2; stroke-linecap: round"/>
   </g>
   <g id="line2d_9">
    <path d="M 278.88 137.91 
L 292.74 126.03 
L 292.74 119.43 
" clip-path="url(#p31920b1c12)" style="fill: none; stroke: #000000; stroke-width: 2; stroke-linecap: round"/>
   </g>
   <g id="line2d_10">
    <path d="M 278.88 137.91 
L 285.906691 131.887122 
" clip-path="url(#p31920b1c12)" style="fill: none; stroke: #000000; stroke-width: 2; stroke-linecap: round"/>
   </g>
   <g id="patch_5">
    <path d="M 283.563842 129.153799 
L 292.74 126.03 
L 288.24954 134.620446 
z
" clip-path="url(#p31920b1c12)"/>
   </g>
   <g id="line2d_11">
    <path d="M 292.74 119.43 
" clip-path="url(#p31920b1c12)" style="fill: none; stroke: #000000; stroke-width: 2; stroke-linecap: round"/>
   </g>
   <g id="line2d_12">
    <path d="M 292.74 119.43 
L 292.74 173.43 
L 292.74 227.43 
" clip-path="url(#p31920b1c12)" style="fill: none; stroke: #000000; stroke-width: 2; stroke-linecap: round"/>
   </g>
   <g id="line2d_13">
    <path d="M 292.74 227.43 
L 292.74 263.43 
L 301.74 266.43 
L 283.74 272.43 
L 301.74 278.43 
L 283.74 284.43 
L 301.74 290.43 
L 283.74 296.43 
L 292.74 299.43 
L 292.74 335.43 
" clip-path="url(#p31920b1c12)" style="fill: none; stroke: #000000; stroke-width: 2; stroke-linecap: round"/>
   </g>
   <g id="line2d_14">
    <path d="M 292.74 335.43 
L 307.14 335.43 
" clip-path="url(#p31920b1c12)" style="fill: none; stroke: #000000; stroke-width: 2; stroke-linecap: round"/>
   </g>
   <g id="line2d_15">
    <path d="M 307.14 335.43 
L 307.14 328.68 
" clip-path="url(#p31920b1c12)" style="fill: none; stroke: #000000; stroke-width: 2; stroke-linecap: round"/>
   </g>
   <g id="line2d_16">
    <path d="M 307.14 335.43 
L 307.14 342.18 
" clip-path="url(#p31920b1c12)" style="fill: none; stroke: #000000; stroke-width: 2; stroke-linecap: round"/>
   </g>
   <g id="line2d_17">
    <path d="M 148.74 119.43 
L 148.74 83.43 
L 139.74 80.43 
L 157.74 74.43 
L 139.74 68.43 
L 157.74 62.43 
L 139.74 56.43 
L 157.74 50.43 
L 148.74 47.43 
L 148.74 11.43 
" clip-path="url(#p31920b1c12)" style="fill: none; stroke: #000000; stroke-width: 2; stroke-linecap: round"/>
   </g>
   <g id="line2d_18">
    <path d="M 292.74 169.59 
L 292.74 133.59 
L 283.74 130.59 
L 301.74 124.59 
L 283.74 118.59 
L 301.74 112.59 
L 283.74 106.59 
L 301.74 100.59 
L 292.74 97.59 
L 292.74 61.59 
" clip-path="url(#p31920b1c12)" style="fill: none; stroke: #000000; stroke-width: 2; stroke-linecap: round"/>
   </g>
   <g id="line2d_19">
    <path d="M 292.74 61.59 
" clip-path="url(#p31920b1c12)" style="fill: none; stroke: #000000; stroke-width: 2; stroke-linecap: round"/>
   </g>
   <g id="line2d_20">
    <path d="M 220.74 11.43 
L 206.34 11.43 
" clip-path="url(#p31920b1c12)" style="fill: none; stroke: #000000; stroke-width: 2; stroke-linecap: round"/>
   </g>
   <g id="line2d_21">
    <path d="M 206.34 11.43 
L 206.34 18.18 
" clip-path="url(#p31920b1c12)" style="fill: none; stroke: #000000; stroke-width: 2; stroke-linecap: round"/>
   </g>
   <g id="line2d_22">
    <path d="M 206.34 11.43 
L 206.34 4.68 
" clip-path="url(#p31920b1c12)" style="fill: none; stroke: #000000; stroke-width: 2; stroke-linecap: round"/>
   </g>
   <g id="line2d_23">
    <path d="M 121.68 144.51 
L 78.48 144.51 
L 78.48 144.51 
M 56.88 144.51 
L 56.88 144.51 
L 13.68 144.51 
" clip-path="url(#p31920b1c12)" style="fill: none; stroke: #000000; stroke-width: 2; stroke-linecap: round"/>
   </g>
   <g id="line2d_24">
    <path d="M 67.68 139.11 
L 66.561902 139.56 
L 65.52 140.01 
L 64.625299 140.46 
L 63.93877 140.91 
L 63.5072 141.36 
L 63.36 141.81 
L 63.5072 142.26 
L 63.93877 142.71 
L 64.625299 143.16 
L 65.52 143.61 
L 66.561902 144.06 
L 67.68 144.51 
L 68.798098 144.96 
L 69.84 145.41 
L 70.734701 145.86 
L 71.42123 146.31 
L 71.8528 146.76 
L 72 147.21 
L 71.8528 147.66 
L 71.42123 148.11 
L 70.734701 148.56 
L 69.84 149.01 
L 68.798098 149.46 
L 67.68 149.91 
" clip-path="url(#p31920b1c12)" style="fill: none; stroke: #000000; stroke-width: 2; stroke-linecap: round"/>
   </g>
   <g id="line2d_25">
    <path d="M 13.68 144.51 
L 13.68 158.91 
L 4.68 158.91 
L 22.68 158.91 
M 7.38 163.23 
L 19.98 163.23 
M 11.88 167.55 
L 15.48 167.55 
" clip-path="url(#p31920b1c12)" style="fill: none; stroke: #000000; stroke-width: 2; stroke-linecap: round"/>
   </g>
   <g id="line2d_26">
    <path d="M 265.68 144.51 
L 308.88 144.51 
L 308.88 144.51 
M 330.48 144.51 
L 330.48 144.51 
L 373.68 144.51 
" clip-path="url(#p31920b1c12)" style="fill: none; stroke: #000000; stroke-width: 2; stroke-linecap: round"/>
   </g>
   <g id="line2d_27">
    <path d="M 319.68 139.11 
L 320.798098 139.56 
L 321.84 140.01 
L 322.734701 140.46 
L 323.42123 140.91 
L 323.8528 141.36 
L 324 141.81 
L 323.8528 142.26 
L 323.42123 142.71 
L 322.734701 143.16 
L 321.84 143.61 
L 320.798098 144.06 
L 319.68 144.51 
L 318.561902 144.96 
L 317.52 145.41 
L 316.625299 145.86 
L 315.93877 146.31 
L 315.5072 146.76 
L 315.36 147.21 
L 315.5072 147.66 
L 315.93877 148.11 
L 316.625299 148.56 
L 317.52 149.01 
L 318.561902 149.46 
L 319.68 149.91 
" clip-path="url(#p31920b1c12)" style="fill: none; stroke: #000000; stroke-width: 2; stroke-linecap: round"/>
   </g>
   <g id="line2d_28">
    <path d="M 373.68 144.51 
L 373.68 158.91 
L 364.68 158.91 
L 382.68 158.91 
M 367.38 163.23 
L 379.98 163.23 
M 371.88 167.55 
L 375.48 167.55 
" clip-path="url(#p31920b1c12)" style="fill: none; stroke: #000000; stroke-width: 2; stroke-linecap: round"/>
   </g>
   <g id="line2d_29">
    <path d="M 148.74 119.43 
L 161.34 119.43 
L 173.94 119.43 
" clip-path="url(#p31920b1c12)" style="fill: none; stroke: #000000; stroke-width: 2; stroke-linecap: round"/>
   </g>
   <g id="line2d_30">
    <path d="M 292.74 169.59 
L 280.14 169.59 
L 267.54 169.59 
" clip-path="url(#p31920b1c12)" style="fill: none; stroke: #000000; stroke-width: 2; stroke-linecap: round"/>
   </g>
   <g id="text_1">
    <!-- $R_E$ -->
    <g transform="translate(263.76 285.293125) scale(0.14 -0.14)">
     <defs>
      <path id="DejaVuSans-Oblique-52" d="M 1613 4147 
L 1294 2491 
L 2106 2491 
Q 2584 2491 2879 2755 
Q 3175 3019 3175 3444 
Q 3175 3784 2976 3965 
Q 2778 4147 2406 4147 
L 1613 4147 
z
M 2772 2241 
Q 2972 2194 3105 2009 
Q 3238 1825 3413 1275 
L 3809 0 
L 3144 0 
L 2778 1197 
Q 2638 1659 2453 1815 
Q 2269 1972 1888 1972 
L 1191 1972 
L 806 0 
L 172 0 
L 1081 4666 
L 2503 4666 
Q 3150 4666 3495 4373 
Q 3841 4081 3841 3531 
Q 3841 3044 3547 2687 
Q 3253 2331 2772 2241 
z
" transform="scale(0.015625)"/>
      <path id="DejaVuSans-Oblique-45" d="M 1081 4666 
L 4031 4666 
L 3928 4134 
L 1606 4134 
L 1338 2753 
L 3566 2753 
L 3463 2222 
L 1234 2222 
L 909 531 
L 3284 531 
L 3181 0 
L 172 0 
L 1081 4666 
z
" transform="scale(0.015625)"/>
     </defs>
     <use xlink:href="#DejaVuSans-Oblique-52" transform="translate(0 0.09375)"/>
     <use xlink:href="#DejaVuSans-Oblique-45" transform="translate(69.482422 -16.3125) scale(0.7)"/>
    </g>
   </g>
   <g id="text_2">
    <!-- $V_{EE}$ -->
    <g transform="translate(266.74 339.293125) scale(0.14 -0.14)">
     <defs>
      <path id="DejaVuSans-Oblique-56" d="M 1319 0 
L 500 4666 
L 1119 4666 
L 1797 653 
L 4063 4666 
L 4750 4666 
L 2053 0 
L 1319 0 
z
" transform="scale(0.015625)"/>
     </defs>
     <use xlink:href="#DejaVuSans-Oblique-56" transform="translate(0 0.09375)"/>
     <use xlink:href="#DejaVuSans-Oblique-45" transform="translate(68.408203 -16.3125) scale(0.7)"/>
     <use xlink:href="#DejaVuSans-Oblique-45" transform="translate(112.636719 -16.3125) scale(0.7)"/>
    </g>
   </g>
   <g id="text_3">
    <!-- $R_C$ -->
    <g transform="translate(119.06 69.293125) scale(0.14 -0.14)">
     <defs>
      <path id="DejaVuSans-Oblique-43" d="M 4447 4306 
L 4319 3641 
Q 4019 3944 3683 4091 
Q 3347 4238 2956 4238 
Q 2422 4238 2017 3981 
Q 1613 3725 1319 3200 
Q 1131 2863 1032 2486 
Q 934 2109 934 1728 
Q 934 1091 1264 756 
Q 1594 422 2222 422 
Q 2656 422 3056 561 
Q 3456 700 3834 978 
L 3688 231 
Q 3316 72 2936 -9 
Q 2556 -91 2175 -91 
Q 1278 -91 773 396 
Q 269 884 269 1753 
Q 269 2309 461 2846 
Q 653 3384 1013 3828 
Q 1394 4300 1883 4525 
Q 2372 4750 3022 4750 
Q 3422 4750 3780 4639 
Q 4138 4528 4447 4306 
z
" transform="scale(0.015625)"/>
     </defs>
     <use xlink:href="#DejaVuSans-Oblique-52" transform="translate(0 0.09375)"/>
     <use xlink:href="#DejaVuSans-Oblique-43" transform="translate(69.482422 -16.3125) scale(0.7)"/>
    </g>
   </g>
   <g id="text_4">
    <!-- $R_C$ -->
    <g transform="translate(263.06 119.453125) scale(0.14 -0.14)">
     <use xlink:href="#DejaVuSans-Oblique-52" transform="translate(0 0.09375)"/>
     <use xlink:href="#DejaVuSans-Oblique-43" transform="translate(69.482422 -16.3125) scale(0.7)"/>
    </g>
   </g>
   <g id="text_5">
    <!-- $V_1$ -->
    <g transform="translate(59.56 128.638438) scale(0.14 -0.14)">
     <defs>
      <path id="DejaVuSans-31" d="M 794 531 
L 1825 531 
L 1825 4091 
L 703 3866 
L 703 4441 
L 1819 4666 
L 2450 4666 
L 2450 531 
L 3481 531 
L 3481 0 
L 794 0 
L 794 531 
z
" transform="scale(0.015625)"/>
     </defs>
     <use xlink:href="#DejaVuSans-Oblique-56" transform="translate(0 0.09375)"/>
     <use xlink:href="#DejaVuSans-31" transform="translate(68.408203 -16.3125) scale(0.7)"/>
    </g>
   </g>
   <g id="text_6">
    <!-- $V_2$ -->
    <g transform="translate(311.56 128.638438) scale(0.14 -0.14)">
     <defs>
      <path id="DejaVuSans-32" d="M 1228 531 
L 3431 531 
L 3431 0 
L 469 0 
L 469 531 
Q 828 903 1448 1529 
Q 2069 2156 2228 2338 
Q 2531 2678 2651 2914 
Q 2772 3150 2772 3378 
Q 2772 3750 2511 3984 
Q 2250 4219 1831 4219 
Q 1534 4219 1204 4116 
Q 875 4013 500 3803 
L 500 4441 
Q 881 4594 1212 4672 
Q 1544 4750 1819 4750 
Q 2544 4750 2975 4387 
Q 3406 4025 3406 3419 
Q 3406 3131 3298 2873 
Q 3191 2616 2906 2266 
Q 2828 2175 2409 1742 
Q 1991 1309 1228 531 
z
" transform="scale(0.015625)"/>
     </defs>
     <use xlink:href="#DejaVuSans-Oblique-56" transform="translate(0 0.09375)"/>
     <use xlink:href="#DejaVuSans-32" transform="translate(68.408203 -16.3125) scale(0.7)"/>
    </g>
   </g>
   <g id="patch_6">
    <path d="M 173.94 122.13 
C 174.656048 122.13 175.342866 121.845511 175.849188 121.339188 
C 176.355511 120.832866 176.64 120.146048 176.64 119.43 
C 176.64 118.713952 176.355511 118.027134 175.849188 117.520812 
C 175.342866 117.014489 174.656048 116.73 173.94 116.73 
C 173.223952 116.73 172.537134 117.014489 172.030812 117.520812 
C 171.524489 118.027134 171.24 118.713952 171.24 119.43 
C 171.24 120.146048 171.524489 120.832866 172.030812 121.339188 
C 172.537134 121.845511 173.223952 122.13 173.94 122.13 
z
" clip-path="url(#p31920b1c12)" style="stroke: #000000; stroke-width: 2; stroke-linejoin: miter"/>
   </g>
   <g id="text_7">
    <!-- - -->
    <g transform="translate(171.414531 110.218438) scale(0.14 -0.14)">
     <defs>
      <path id="DejaVuSans-2d" d="M 313 2009 
L 1997 2009 
L 1997 1497 
L 313 1497 
L 313 2009 
z
" transform="scale(0.015625)"/>
     </defs>
     <use xlink:href="#DejaVuSans-2d"/>
    </g>
   </g>
   <g id="patch_7">
    <path d="M 267.54 172.29 
C 268.256048 172.29 268.942866 172.005511 269.449188 171.499188 
C 269.955511 170.992866 270.24 170.306048 270.24 169.59 
C 270.24 168.873952 269.955511 168.187134 269.449188 167.680812 
C 268.942866 167.174489 268.256048 166.89 267.54 166.89 
C 266.823952 166.89 266.137134 167.174489 265.630812 167.680812 
C 265.124489 168.187134 264.84 168.873952 264.84 169.59 
C 264.84 170.306048 265.124489 170.992866 265.630812 171.499188 
C 266.137134 172.005511 266.823952 172.29 267.54 172.29 
z
" clip-path="url(#p31920b1c12)" style="stroke: #000000; stroke-width: 2; stroke-linejoin: miter"/>
   </g>
   <g id="text_8">
    <!-- + -->
    <g transform="translate(261.674219 160.378438) scale(0.14 -0.14)">
     <defs>
      <path id="DejaVuSans-2b" d="M 2944 4013 
L 2944 2272 
L 4684 2272 
L 4684 1741 
L 2944 1741 
L 2944 0 
L 2419 0 
L 2419 1741 
L 678 1741 
L 678 2272 
L 2419 2272 
L 2419 4013 
L 2944 4013 
z
" transform="scale(0.015625)"/>
     </defs>
     <use xlink:href="#DejaVuSans-2b"/>
    </g>
   </g>
  </g>
 </g>
 <defs>
  <clipPath id="p31920b1c12">
   <rect x="0" y="0" width="387.36" height="347.11"/>
  </clipPath>
 </defs>
</svg>
